<svg width="316.547" height="310.693" viewBox="0 0 237.41 233.02" class="displayed_equation" xmlns="http://www.w3.org/2000/svg">
  <path d="M 122.246094 115.824219 L 225.011719 115.824219 C 225.011719 79.113281 205.421875 45.179688 173.628906 26.828125 C 156.113281 16.714844 135.980469 12 115.796875 13.269531" fill="#69ba6c" />
  <path d="M 122.246094 115.824219 L 115.796875 13.269531 C 82.972656 15.332031 53.105469 32.996094 35.484375 60.761719" fill="#ec6258" />
  <path d="M 122.246094 115.824219 L 35.484375 60.765625 C 16.640625 90.460938 14.296875 127.757813 29.273438 159.574219" fill="#fbc04f" />
  <path d="M 122.246094 115.824219 L 29.265625 159.578125 C 47.210938 197.710938 86.636719 221.023438 128.699219 218.375" fill="#ed61ae" />
  <path d="M 122.246094 115.824219 L 128.699219 218.382813 C 182.828125 214.976563 225 170.058594 225 115.824219" fill="#62aadf" />
  <path d="M1222.460938 1171.957813L2250.117188 1171.957813M1222.460938 1171.957813L1157.96875 2197.504688M1222.460938 1171.957813L354.84375 1722.582813M1222.460938 1171.957813L292.65625 734.41875M1222.460938 1171.957813L1286.992188 146.371875M2250.117188 1171.957813C2250.117188 1739.535938 1790.039063 2199.614063 1222.460938 2199.614063 654.882813 2199.614063 194.804688 1739.535938 194.804688 1171.957813 194.804688 604.379688 654.882813 144.301563 1222.460938 144.301563 1790.039063 144.301563 2250.117188 604.379688 2250.117188 1171.957813zM2250.117188 1171.957813" transform="matrix(.1 0 0 -.1 0 233.02)" fill="none" stroke-width="7.97" stroke="#fff" stroke-miterlimit="10" />
  <path d="M155.777344 77.4375L155.453125 77.4375C155.195313 78.105469 155.050781 78.339844 154.460938 78.339844L152.910156 78.339844 152.128906 78.371094 152.128906 78.316406 153.601563 76.921875C154.785156 75.726563 155.417969 74.960938 155.417969 73.964844 155.417969 72.792969 154.539063 72.035156 153.277344 72.035156 152.195313 72.035156 151.4375 72.660156 151.089844 73.742188L151.359375 73.855469C151.773438 73.015625 152.261719 72.761719 152.988281 72.761719 153.847656 72.761719 154.382813 73.296875 154.382813 74.132813 154.382813 75.304688 153.824219 76.007813 152.71875 77.144531L151.023438 78.839844 151.023438 79.21875 155.417969 79.21875 155.777344 77.4375M160.828125 72.015625C158.429688 72.113281 156.703125 73.664063 156.703125 76.351563 156.703125 77.992188 157.425781 79.355469 159.089844 79.355469 160.496094 79.355469 161.296875 78.472656 161.296875 76.957031 161.296875 75.492188 160.507813 74.613281 159.289063 74.613281 158.710938 74.613281 158.296875 74.855469 157.839844 75.304688L157.761719 75.292969C158.039063 73.664063 159.289063 72.570313 160.851563 72.335938zM160.328125 77.046875C160.328125 78.460938 159.882813 78.964844 159.132813 78.964844 158.164063 78.964844 157.707031 77.96875 157.707031 76.585938 157.707031 75.617188 158.308594 75.257813 158.957031 75.257813 159.882813 75.257813 160.328125 76.039063 160.328125 77.046875M164.878906 73.40625C164.878906 74.5 164.3125 75.425781 163.5625 75.425781 163.207031 75.425781 162.972656 75.191406 162.972656 74.410156 162.972656 73.554688 163.207031 72.414063 164.1875 72.414063 164.566406 72.414063 164.878906 72.75 164.878906 73.40625zM168.917969 77.089844C168.917969 76.207031 168.449219 75.761719 167.804688 75.761719 166.542969 75.761719 165.859375 76.84375 165.859375 78.070313 165.859375 78.941406 166.320313 79.441406 167.089844 79.441406 168.09375 79.441406 168.917969 78.507813 168.917969 77.089844zM168.539063 77.078125C168.539063 78.183594 167.960938 79.074219 167.1875 79.074219 166.855469 79.074219 166.632813 78.808594 166.632813 78.148438 166.632813 77.144531 166.878906 76.0625 167.835938 76.0625 168.214844 76.0625 168.539063 76.398438 168.539063 77.078125zM168.238281 71.789063L167.734375 71.789063C166.808594 72.726563 166.519531 72.78125 166.007813 72.78125 165.113281 72.78125 164.921875 72.113281 164.109375 72.113281 163.027344 72.113281 162.203125 73.074219 162.203125 74.402344 162.203125 75.257813 162.636719 75.796875 163.417969 75.796875 164.566406 75.796875 165.257813 74.65625 165.257813 73.476563 165.257813 73.285156 165.226563 73.085938 165.179688 72.929688L165.203125 72.90625C165.515625 73.039063 165.671875 73.085938 165.960938 73.085938 166.53125 73.085938 166.820313 72.929688 167.109375 72.726563L167.167969 72.726563 163.183594 79.453125 163.71875 79.453125 168.238281 71.789063M89.453125 71.921875L89.453125 71.605469C88.425781 71.605469 88.015625 71.40625 88.015625 70.859375L88.015625 64.792969 87.691406 64.792969 85.523438 65.402344 85.523438 65.773438C85.871094 65.660156 86.441406 65.59375 86.664063 65.59375 86.941406 65.59375 87.03125 65.75 87.03125 66.140625L87.03125 70.859375C87.03125 71.417969 86.640625 71.605469 85.59375 71.605469L85.59375 71.921875 89.453125 71.921875M94.953125 65.796875L95.132813 64.890625 92.074219 64.890625 91.382813 67.804688 91.515625 67.96875C91.671875 67.96875 91.726563 67.96875 92.019531 67.992188 93.558594 68.070313 94.429688 68.527344 94.429688 69.921875 94.429688 71.082031 93.726563 71.507813 92.933594 71.507813 92.21875 71.507813 91.851563 70.960938 91.40625 70.960938 91.125 70.960938 90.957031 71.183594 90.957031 71.441406 90.957031 71.851563 91.382813 72.066406 92.242188 72.066406 94.015625 72.066406 95.242188 71.195313 95.242188 69.476563 95.242188 67.726563 93.871094 67.199219 92.554688 67.101563L92.03125 67.066406 92.328125 65.796875 94.953125 65.796875M98.980469 66.105469C98.980469 67.199219 98.410156 68.125 97.664063 68.125 97.304688 68.125 97.070313 67.890625 97.070313 67.113281 97.070313 66.253906 97.304688 65.113281 98.289063 65.113281 98.667969 65.113281 98.980469 65.449219 98.980469 66.105469zM103.019531 69.789063C103.019531 68.90625 102.550781 68.460938 101.902344 68.460938 100.640625 68.460938 99.960938 69.542969 99.960938 70.773438 99.960938 71.640625 100.417969 72.144531 101.1875 72.144531 102.191406 72.144531 103.019531 71.207031 103.019531 69.789063zM102.640625 69.777344C102.640625 70.882813 102.058594 71.773438 101.289063 71.773438 100.953125 71.773438 100.730469 71.507813 100.730469 70.851563 100.730469 69.84375 100.976563 68.761719 101.9375 68.761719 102.316406 68.761719 102.640625 69.097656 102.640625 69.777344zM102.339844 64.488281L101.835938 64.488281C100.910156 65.425781 100.617188 65.480469 100.105469 65.480469 99.214844 65.480469 99.023438 64.8125 98.210938 64.8125 97.128906 64.8125 96.300781 65.773438 96.300781 67.101563 96.300781 67.960938 96.738281 68.496094 97.519531 68.496094 98.667969 68.496094 99.359375 67.355469 99.359375 66.175781 99.359375 65.984375 99.324219 65.785156 99.28125 65.628906L99.304688 65.605469C99.617188 65.738281 99.773438 65.785156 100.0625 65.785156 100.632813 65.785156 100.921875 65.628906 101.210938 65.425781L101.265625 65.425781 97.285156 72.152344 97.820313 72.152344 102.339844 64.488281M62.453125 116.019531L62.453125 115.707031C61.425781 115.707031 61.015625 115.507813 61.015625 114.960938L61.015625 108.890625 60.691406 108.890625 58.523438 109.503906 58.523438 109.871094C58.871094 109.761719 59.441406 109.695313 59.664063 109.695313 59.941406 109.695313 60.03125 109.851563 60.03125 110.238281L60.03125 114.960938C60.03125 115.519531 59.640625 115.707031 58.59375 115.707031L58.59375 116.019531 62.453125 116.019531M67.828125 108.8125C65.429688 108.914063 63.703125 110.464844 63.703125 113.152344 63.703125 114.792969 64.425781 116.152344 66.089844 116.152344 67.496094 116.152344 68.296875 115.273438 68.296875 113.757813 68.296875 112.292969 67.507813 111.410156 66.289063 111.410156 65.710938 111.410156 65.296875 111.65625 64.839844 112.105469L64.761719 112.09375C65.039063 110.464844 66.289063 109.371094 67.851563 109.136719zM67.328125 113.84375C67.328125 115.261719 66.882813 115.765625 66.132813 115.765625 65.164063 115.765625 64.707031 114.769531 64.707031 113.386719 64.707031 112.417969 65.308594 112.058594 65.957031 112.058594 66.882813 112.058594 67.328125 112.839844 67.328125 113.84375M71.980469 110.207031C71.980469 111.300781 71.410156 112.226563 70.664063 112.226563 70.304688 112.226563 70.070313 111.992188 70.070313 111.210938 70.070313 110.351563 70.304688 109.214844 71.289063 109.214844 71.667969 109.214844 71.980469 109.550781 71.980469 110.207031zM76.019531 113.890625C76.019531 113.007813 75.550781 112.5625 74.902344 112.5625 73.640625 112.5625 72.960938 113.644531 72.960938 114.871094 72.960938 115.738281 73.417969 116.242188 74.1875 116.242188 75.191406 116.242188 76.019531 115.304688 76.019531 113.890625zM75.640625 113.878906C75.640625 114.980469 75.058594 115.875 74.289063 115.875 73.953125 115.875 73.730469 115.605469 73.730469 114.949219 73.730469 113.945313 73.976563 112.863281 74.9375 112.863281 75.316406 112.863281 75.640625 113.199219 75.640625 113.878906zM75.335938 108.589844L74.835938 108.589844C73.910156 109.527344 73.617188 109.582031 73.105469 109.582031 72.214844 109.582031 72.023438 108.914063 71.210938 108.914063 70.128906 108.914063 69.300781 109.871094 69.300781 111.199219 69.300781 112.058594 69.738281 112.59375 70.519531 112.59375 71.667969 112.59375 72.359375 111.457031 72.359375 110.273438 72.359375 110.085938 72.324219 109.882813 72.28125 109.726563L72.304688 109.707031C72.617188 109.839844 72.773438 109.882813 73.0625 109.882813 73.632813 109.882813 73.921875 109.726563 74.210938 109.527344L74.265625 109.527344 70.285156 116.253906 70.820313 116.253906 75.335938 108.589844M89.453125 167.019531L89.453125 166.707031C88.425781 166.707031 88.015625 166.507813 88.015625 165.960938L88.015625 159.890625 87.691406 159.890625 85.523438 160.503906 85.523438 160.875C85.871094 160.761719 86.441406 160.695313 86.664063 160.695313 86.941406 160.695313 87.03125 160.851563 87.03125 161.242188L87.03125 165.960938C87.03125 166.519531 86.640625 166.707031 85.59375 166.707031L85.59375 167.019531 89.453125 167.019531M91.25 167.164063C93.714844 167.144531 95.320313 165.726563 95.320313 162.847656 95.320313 161.195313 94.640625 159.8125 92.976563 159.8125 91.570313 159.8125 90.734375 160.695313 90.734375 162.203125 90.734375 163.671875 91.527344 164.542969 92.742188 164.542969 93.300781 164.542969 93.703125 164.308594 94.203125 163.851563L94.273438 163.863281C94.027344 165.671875 92.765625 166.664063 91.226563 166.84375zM91.707031 162.132813C91.707031 160.707031 92.207031 160.191406 92.933594 160.191406 93.914063 160.191406 94.316406 161.1875 94.316406 162.578125 94.316406 163.539063 93.726563 163.886719 93.078125 163.886719 92.152344 163.886719 91.707031 163.171875 91.707031 162.132813M98.980469 161.207031C98.980469 162.300781 98.410156 163.226563 97.664063 163.226563 97.304688 163.226563 97.070313 162.992188 97.070313 162.210938 97.070313 161.351563 97.304688 160.214844 98.289063 160.214844 98.667969 160.214844 98.980469 160.550781 98.980469 161.207031zM103.019531 164.890625C103.019531 164.007813 102.550781 163.5625 101.902344 163.5625 100.640625 163.5625 99.960938 164.644531 99.960938 165.871094 99.960938 166.742188 100.417969 167.242188 101.1875 167.242188 102.191406 167.242188 103.019531 166.304688 103.019531 164.890625zM102.640625 164.878906C102.640625 165.984375 102.058594 166.875 101.289063 166.875 100.953125 166.875 100.730469 166.609375 100.730469 165.949219 100.730469 164.945313 100.976563 163.863281 101.9375 163.863281 102.316406 163.863281 102.640625 164.199219 102.640625 164.878906zM102.339844 159.589844L101.835938 159.589844C100.910156 160.527344 100.617188 160.582031 100.105469 160.582031 99.214844 160.582031 99.023438 159.914063 98.210938 159.914063 97.128906 159.914063 96.300781 160.875 96.300781 162.203125 96.300781 163.058594 96.738281 163.59375 97.519531 163.59375 98.667969 163.59375 99.359375 162.457031 99.359375 161.273438 99.359375 161.085938 99.324219 160.882813 99.28125 160.726563L99.304688 160.707031C99.617188 160.839844 99.773438 160.882813 100.0625 160.882813 100.632813 160.882813 100.921875 160.726563 101.210938 160.527344L101.265625 160.527344 97.285156 167.253906 97.820313 167.253906 102.339844 159.589844M159.34375 152.5625C159.34375 152.207031 159.121094 151.871094 158.671875 151.871094 158.238281 151.871094 158.015625 152.183594 158.015625 152.5625 158.015625 152.945313 158.21875 153.199219 158.664063 153.199219 159.121094 153.199219 159.34375 152.933594 159.34375 152.5625zM163.101563 152.5625C163.101563 152.207031 162.878906 151.871094 162.433594 151.871094 161.996094 151.871094 161.773438 152.183594 161.773438 152.5625 161.773438 152.945313 161.976563 153.199219 162.421875 153.199219 162.878906 153.199219 163.101563 152.933594 163.101563 152.5625zM166.863281 152.5625C166.863281 152.207031 166.640625 151.871094 166.195313 151.871094 165.757813 151.871094 165.535156 152.183594 165.535156 152.5625 165.535156 152.945313 165.734375 153.199219 166.183594 153.199219 166.640625 153.199219 166.863281 152.933594 166.863281 152.5625M69.039063 55.84375L68.679688 55.84375C68.246094 57.140625 68.066406 57.550781 66.570313 57.550781L66.058594 57.550781C65.398438 57.550781 65.210938 57.449219 65.210938 56.960938L65.210938 52.117188C65.210938 51.246094 65.398438 51.023438 66.304688 51.023438L66.304688 50.691406 63.167969 50.691406 63.167969 51.023438C64.0625 51.023438 64.183594 51.246094 64.183594 52.105469L64.183594 56.648438C64.183594 57.519531 64.0625 57.6875 63.167969 57.6875L63.167969 58.019531 68.703125 58.019531 69.039063 55.84375M70.917969 50.289063C70.527344 50.289063 70.28125 50.578125 70.28125 50.914063 70.28125 51.257813 70.539063 51.550781 70.917969 51.550781 71.308594 51.550781 71.554688 51.257813 71.554688 50.914063 71.554688 50.578125 71.308594 50.289063 70.917969 50.289063zM72.167969 57.707031C71.421875 57.707031 71.363281 57.539063 71.363281 56.894531L71.363281 52.640625 71.074219 52.640625 69.667969 52.953125 69.667969 53.277344C69.667969 53.277344 69.789063 53.257813 69.945313 53.257813 70.269531 53.257813 70.4375 53.300781 70.4375 53.78125L70.4375 56.894531C70.4375 57.527344 70.40625 57.707031 69.65625 57.707031L69.65625 58.019531 72.167969 58.019531 72.167969 57.707031M75.667969 57.015625C75.390625 57.328125 75.246094 57.472656 74.886719 57.472656 74.453125 57.472656 74.351563 57.207031 74.351563 56.414063L74.351563 53.210938 75.613281 53.210938 75.613281 52.742188 74.351563 52.742188 74.363281 51.214844 74.074219 51.214844C73.671875 52.160156 73.335938 52.632813 72.8125 52.953125L72.8125 53.210938 73.425781 53.210938 73.425781 56.726563C73.425781 57.730469 73.75 58.132813 74.496094 58.132813 75.210938 58.132813 75.445313 57.796875 75.882813 57.195313L75.667969 57.015625M80.53125 56.425781C80.171875 56.894531 79.828125 57.296875 78.921875 57.296875 78.03125 57.296875 77.183594 56.59375 77.183594 55.054688L80.707031 55.054688C80.652344 53.488281 79.851563 52.609375 78.632813 52.609375 77.328125 52.609375 76.28125 53.5 76.28125 55.363281 76.28125 57.160156 77.316406 58.132813 78.65625 58.132813 79.804688 58.132813 80.339844 57.429688 80.742188 56.582031zM77.171875 54.640625C77.261719 53.601563 77.707031 53.054688 78.464844 53.054688 79.257813 53.054688 79.625 53.8125 79.660156 54.640625L77.171875 54.640625M83.140625 52.640625L82.875 52.640625 81.492188 52.976563 81.492188 53.289063C81.492188 53.289063 81.613281 53.265625 81.835938 53.265625 82.238281 53.265625 82.238281 53.46875 82.238281 53.871094L82.238281 56.9375C82.238281 57.5625 82.160156 57.695313 81.421875 57.695313L81.421875 58.019531 84.210938 58.019531 84.210938 57.695313C83.375 57.695313 83.164063 57.585938 83.164063 56.882813L83.164063 54.339844C83.429688 53.890625 83.789063 53.421875 84.046875 53.421875 84.179688 53.421875 84.402344 53.804688 84.769531 53.804688 85.015625 53.804688 85.261719 53.625 85.261719 53.199219 85.261719 52.820313 85.050781 52.574219 84.613281 52.574219 84.078125 52.574219 83.742188 52.96875 83.175781 53.792969L83.140625 53.792969 83.140625 52.640625M88.636719 57.328125C88.703125 57.816406 88.8125 58.074219 89.304688 58.074219 89.875 58.074219 90.140625 57.84375 90.511719 57.304688L90.34375 57.128906C90.1875 57.296875 90.03125 57.40625 89.820313 57.40625 89.585938 57.40625 89.484375 57.316406 89.484375 56.859375L89.484375 54.328125C89.484375 53.167969 89.027344 52.609375 87.8125 52.609375 86.59375 52.609375 85.847656 53.210938 85.847656 53.835938 85.847656 54.203125 86.09375 54.371094 86.316406 54.371094 86.628906 54.371094 86.804688 54.203125 86.804688 53.859375 86.804688 53.1875 86.917969 52.953125 87.554688 52.953125 88.222656 52.953125 88.558594 53.324219 88.558594 54.292969L88.558594 54.785156C87.597656 55.085938 85.625 55.375 85.625 56.847656 85.625 57.5625 86.09375 58.097656 86.953125 58.097656 87.664063 58.097656 88.066406 57.785156 88.59375 57.328125zM88.558594 56.992188C88.179688 57.304688 87.777344 57.484375 87.410156 57.484375 86.929688 57.484375 86.605469 57.140625 86.605469 56.582031 86.605469 55.710938 87.542969 55.410156 88.558594 55.152344L88.558594 56.992188M93.867188 57.015625C93.589844 57.328125 93.445313 57.472656 93.085938 57.472656 92.652344 57.472656 92.554688 57.207031 92.554688 56.414063L92.554688 53.210938 93.8125 53.210938 93.8125 52.742188 92.554688 52.742188 92.5625 51.214844 92.273438 51.214844C91.871094 52.160156 91.539063 52.632813 91.011719 52.953125L91.011719 53.210938 91.625 53.210938 91.625 56.726563C91.625 57.730469 91.949219 58.132813 92.695313 58.132813 93.410156 58.132813 93.644531 57.796875 94.082031 57.195313L93.867188 57.015625M100.125 57.519531L100.011719 57.519531C99.476563 57.519531 99.34375 57.441406 99.34375 56.78125L99.34375 52.6875 99.074219 52.6875 97.515625 52.855469 97.515625 53.167969C98.226563 53.167969 98.417969 53.222656 98.417969 53.8125L98.417969 56.746094C97.972656 57.140625 97.613281 57.417969 97.046875 57.417969 96.464844 57.417969 96.039063 57.082031 96.039063 55.945313L96.039063 52.6875 95.796875 52.6875 94.355469 52.855469 94.355469 53.167969C94.960938 53.179688 95.117188 53.222656 95.117188 53.824219L95.117188 56.089844C95.117188 57.605469 95.648438 58.132813 96.578125 58.132813 97.289063 58.132813 97.816406 57.796875 98.40625 57.21875L98.460938 57.21875 98.460938 58.074219 98.707031 58.074219 100.125 57.816406 100.125 57.519531M102.542969 52.640625L102.273438 52.640625 100.890625 52.976563 100.890625 53.289063C100.890625 53.289063 101.011719 53.265625 101.234375 53.265625 101.636719 53.265625 101.636719 53.46875 101.636719 53.871094L101.636719 56.9375C101.636719 57.5625 101.558594 57.695313 100.824219 57.695313L100.824219 58.019531 103.613281 58.019531 103.613281 57.695313C102.777344 57.695313 102.5625 57.585938 102.5625 56.882813L102.5625 54.339844C102.832031 53.890625 103.1875 53.421875 103.445313 53.421875 103.578125 53.421875 103.800781 53.804688 104.171875 53.804688 104.414063 53.804688 104.660156 53.625 104.660156 53.199219 104.660156 52.820313 104.449219 52.574219 104.015625 52.574219 103.476563 52.574219 103.144531 52.96875 102.574219 53.792969L102.542969 53.792969 102.542969 52.640625M109.328125 56.425781C108.972656 56.894531 108.628906 57.296875 107.722656 57.296875 106.832031 57.296875 105.984375 56.59375 105.984375 55.054688L109.507813 55.054688C109.453125 53.488281 108.648438 52.609375 107.433594 52.609375 106.128906 52.609375 105.078125 53.5 105.078125 55.363281 105.078125 57.160156 106.117188 58.132813 107.457031 58.132813 108.605469 58.132813 109.140625 57.429688 109.542969 56.582031zM105.972656 54.640625C106.0625 53.601563 106.507813 53.054688 107.265625 53.054688 108.058594 53.054688 108.425781 53.8125 108.460938 54.640625L105.972656 54.640625M143.109375 61.261719C143.109375 60.394531 143.144531 60.125 144.203125 60.125L144.203125 59.789063 141.003906 59.789063 141.003906 60.125C142.027344 60.125 142.085938 60.394531 142.085938 61.261719L142.085938 65.660156C142.085938 66.652344 142.007813 66.785156 141.003906 66.785156L141.003906 67.121094 144.203125 67.121094 144.203125 66.785156C143.199219 66.785156 143.109375 66.640625 143.109375 65.660156L143.109375 63.570313 146.769531 63.570313 146.769531 65.660156C146.769531 66.628906 146.679688 66.785156 145.6875 66.785156L145.6875 67.121094 148.878906 67.121094 148.878906 66.785156C147.863281 66.785156 147.785156 66.628906 147.785156 65.660156L147.785156 61.261719C147.785156 60.382813 147.820313 60.125 148.878906 60.125L148.878906 59.789063 145.6875 59.789063 145.6875 60.125C146.714844 60.125 146.769531 60.394531 146.769531 61.261719L146.769531 63.136719 143.109375 63.136719 143.109375 61.261719M150.917969 59.390625C150.527344 59.390625 150.28125 59.679688 150.28125 60.015625 150.28125 60.359375 150.539063 60.648438 150.917969 60.648438 151.308594 60.648438 151.554688 60.359375 151.554688 60.015625 151.554688 59.679688 151.308594 59.390625 150.917969 59.390625zM152.167969 66.808594C151.421875 66.808594 151.363281 66.640625 151.363281 65.992188L151.363281 61.742188 151.074219 61.742188 149.667969 62.054688 149.667969 62.378906C149.667969 62.378906 149.789063 62.355469 149.945313 62.355469 150.269531 62.355469 150.4375 62.402344 150.4375 62.882813L150.4375 65.992188C150.4375 66.628906 150.40625 66.808594 149.65625 66.808594L149.65625 67.121094 152.167969 67.121094 152.167969 66.808594M152.933594 65.289063L152.96875 67.210938 153.203125 67.210938 153.4375 66.953125 153.460938 66.953125C153.75 67.074219 154.085938 67.242188 154.730469 67.242188 155.734375 67.242188 156.605469 66.839844 156.605469 65.792969 156.605469 64.96875 156.058594 64.554688 155.042969 64.019531 154.105469 63.539063 153.738281 63.261719 153.738281 62.824219 153.738281 62.324219 154.128906 62.089844 154.640625 62.089844 155.320313 62.089844 155.734375 62.410156 155.980469 63.472656L156.28125 63.472656 156.246094 61.765625 156.023438 61.765625 155.835938 62 155.824219 62C155.546875 61.863281 155.210938 61.710938 154.652344 61.710938 153.695313 61.710938 152.945313 62.199219 152.945313 63.113281 152.945313 63.941406 153.402344 64.332031 154.417969 64.84375 155.457031 65.355469 155.667969 65.570313 155.667969 66.09375 155.667969 66.617188 155.265625 66.828125 154.710938 66.828125 153.882813 66.828125 153.460938 66.4375 153.226563 65.289063L152.933594 65.289063M160.167969 66.113281C159.890625 66.429688 159.746094 66.574219 159.386719 66.574219 158.953125 66.574219 158.851563 66.304688 158.851563 65.515625L158.851563 62.3125 160.113281 62.3125 160.113281 61.84375 158.851563 61.84375 158.863281 60.316406 158.574219 60.316406C158.171875 61.261719 157.839844 61.730469 157.3125 62.054688L157.3125 62.3125 157.925781 62.3125 157.925781 65.824219C157.925781 66.828125 158.25 67.230469 158.996094 67.230469 159.710938 67.230469 159.945313 66.898438 160.382813 66.296875L160.167969 66.113281M163.277344 61.710938C161.773438 61.710938 160.78125 62.804688 160.78125 64.421875 160.78125 66.226563 161.71875 67.230469 163.277344 67.230469 164.726563 67.230469 165.753906 66.25 165.753906 64.375 165.753906 62.726563 164.804688 61.710938 163.277344 61.710938zM163.234375 62.132813C164.226563 62.132813 164.726563 63.058594 164.726563 64.429688 164.726563 66.25 164.238281 66.785156 163.324219 66.785156 162.363281 66.796875 161.816406 66.050781 161.816406 64.273438 161.816406 62.847656 162.386719 62.132813 163.234375 62.132813M168.242188 61.742188L167.972656 61.742188 166.589844 62.078125 166.589844 62.390625C166.589844 62.390625 166.714844 62.367188 166.9375 62.367188 167.339844 62.367188 167.339844 62.566406 167.339844 62.96875L167.339844 66.035156C167.339844 66.660156 167.257813 66.796875 166.523438 66.796875L166.523438 67.121094 169.3125 67.121094 169.3125 66.796875C168.476563 66.796875 168.265625 66.6875 168.265625 65.980469L168.265625 63.4375C168.53125 62.992188 168.890625 62.523438 169.144531 62.523438 169.28125 62.523438 169.503906 62.902344 169.871094 62.902344 170.117188 62.902344 170.359375 62.726563 170.359375 62.300781 170.359375 61.921875 170.148438 61.675781 169.714844 61.675781 169.179688 61.675781 168.84375 62.066406 168.273438 62.890625L168.242188 62.890625 168.242188 61.742188" />
  <path d="M175.898438 61.84375L174.003906 61.84375 174.003906 62.167969C174.371094 62.167969 174.628906 62.222656 174.628906 62.445313 174.628906 62.535156 174.59375 62.636719 174.570313 62.726563L173.503906 65.992188 173.421875 65.992188 173.265625 65.414063 172.171875 62.960938C172.105469 62.804688 172.015625 62.613281 172.015625 62.480469 172.015625 62.277344 172.152344 62.179688 172.652344 62.179688L172.652344 61.84375 170.265625 61.84375 170.265625 62.167969C170.667969 62.167969 170.824219 62.3125 170.9375 62.566406L172.574219 66.148438C172.710938 66.449219 172.910156 66.917969 172.910156 67.0625 172.910156 67.386719 172.273438 68.773438 171.917969 68.773438 171.640625 68.773438 171.40625 68.527344 171.015625 68.527344 170.714844 68.527344 170.488281 68.671875 170.488281 69.007813 170.488281 69.429688 170.8125 69.585938 171.3125 69.585938 172.21875 69.585938 172.765625 69.007813 173.390625 67.363281L175.128906 62.792969C175.285156 62.355469 175.453125 62.167969 175.898438 62.167969L175.898438 61.84375M141.984375 145.421875L141.984375 145.085938C141.179688 145.085938 141.003906 144.90625 141.003906 144.09375L141.003906 139.441406C141.003906 138.617188 141.179688 138.425781 141.972656 138.425781L141.972656 138.089844 139.851563 138.089844 137.507813 143.703125 137.464844 143.703125 135.109375 138.089844 132.835938 138.089844 132.835938 138.425781C133.714844 138.425781 133.871094 138.617188 133.871094 139.453125L133.871094 143.792969C133.871094 144.941406 133.714844 145.085938 132.8125 145.085938L132.8125 145.421875 135.433594 145.421875 135.433594 145.085938C134.585938 145.085938 134.417969 144.941406 134.417969 143.792969L134.417969 139.296875 134.464844 139.296875 137.097656 145.421875 137.363281 145.421875 139.964844 139.285156 140.007813 139.285156 140.007813 144.09375C140.007813 144.90625 139.875 145.085938 139.015625 145.085938L139.015625 145.421875 141.984375 145.421875M145.9375 144.726563C146.003906 145.21875 146.113281 145.476563 146.605469 145.476563 147.175781 145.476563 147.441406 145.242188 147.8125 144.707031L147.644531 144.527344C147.488281 144.695313 147.332031 144.804688 147.117188 144.804688 146.882813 144.804688 146.785156 144.71875 146.785156 144.257813L146.785156 141.726563C146.785156 140.566406 146.328125 140.007813 145.109375 140.007813 143.894531 140.007813 143.148438 140.613281 143.148438 141.234375 143.148438 141.605469 143.390625 141.773438 143.617188 141.773438 143.929688 141.773438 144.105469 141.605469 144.105469 141.257813 144.105469 140.589844 144.21875 140.355469 144.855469 140.355469 145.523438 140.355469 145.859375 140.722656 145.859375 141.695313L145.859375 142.183594C144.898438 142.484375 142.921875 142.777344 142.921875 144.25 142.921875 144.960938 143.390625 145.5 144.253906 145.5 144.964844 145.5 145.367188 145.1875 145.890625 144.726563zM145.859375 144.394531C145.476563 144.707031 145.078125 144.882813 144.710938 144.882813 144.230469 144.882813 143.90625 144.539063 143.90625 143.980469 143.90625 143.109375 144.84375 142.808594 145.859375 142.554688L145.859375 144.394531M151.167969 144.414063C150.890625 144.726563 150.746094 144.875 150.386719 144.875 149.953125 144.875 149.851563 144.605469 149.851563 143.8125L149.851563 140.613281 151.113281 140.613281 151.113281 140.144531 149.851563 140.144531 149.863281 138.617188 149.574219 138.617188C149.171875 139.5625 148.839844 140.03125 148.3125 140.355469L148.3125 140.613281 148.925781 140.613281 148.925781 144.125C148.925781 145.128906 149.25 145.53125 149.996094 145.53125 150.710938 145.53125 150.945313 145.195313 151.382813 144.59375L151.167969 144.414063M153.542969 141.414063C154.089844 140.914063 154.492188 140.722656 154.925781 140.722656 155.828125 140.722656 155.953125 141.492188 155.953125 142.40625L155.953125 144.335938C155.953125 144.875 155.90625 145.097656 155.136719 145.097656L155.136719 145.421875 157.703125 145.421875 157.703125 145.097656C157 145.097656 156.878906 144.882813 156.878906 144.292969L156.878906 142.074219C156.878906 141.160156 156.664063 140.007813 155.382813 140.007813 154.789063 140.007813 154.277344 140.265625 153.574219 140.925781L153.542969 140.925781 153.542969 137.542969 153.242188 137.542969 151.746094 137.933594 151.746094 138.246094C151.746094 138.246094 151.890625 138.226563 152.070313 138.226563 152.371094 138.226563 152.617188 138.28125 152.617188 138.671875L152.617188 144.382813C152.617188 145.007813 152.414063 145.097656 151.835938 145.097656L151.835938 145.421875 154.367188 145.421875 154.367188 145.097656C153.597656 145.097656 153.542969 144.917969 153.542969 144.335938L153.542969 141.414063M162.53125 143.824219C162.171875 144.292969 161.828125 144.695313 160.921875 144.695313 160.03125 144.695313 159.183594 143.992188 159.183594 142.453125L162.707031 142.453125C162.652344 140.890625 161.851563 140.007813 160.632813 140.007813 159.328125 140.007813 158.28125 140.902344 158.28125 142.765625 158.28125 144.5625 159.316406 145.53125 160.65625 145.53125 161.804688 145.53125 162.339844 144.828125 162.742188 143.980469zM159.171875 142.039063C159.261719 141.003906 159.707031 140.457031 160.464844 140.457031 161.257813 140.457031 161.628906 141.214844 161.660156 142.039063L159.171875 142.039063M165.164063 141.4375C165.488281 141.136719 165.976563 140.722656 166.558594 140.722656 167.070313 140.722656 167.453125 140.96875 167.453125 141.917969L167.453125 144.125C167.453125 144.90625 167.382813 145.097656 166.59375 145.097656L166.59375 145.421875 169.234375 145.421875 169.234375 145.097656C168.433594 145.097656 168.378906 144.894531 168.378906 144.125L168.378906 141.414063C168.746094 141.101563 169.203125 140.722656 169.660156 140.722656 170.183594 140.722656 170.617188 140.96875 170.617188 141.984375L170.617188 144.125C170.617188 144.804688 170.585938 145.097656 169.828125 145.097656L169.828125 145.421875 172.347656 145.421875 172.347656 145.097656C171.578125 145.097656 171.546875 144.828125 171.546875 144.125L171.546875 141.851563C171.546875 140.5 170.976563 140.007813 170.105469 140.007813 169.515625 140.007813 168.945313 140.332031 168.332031 140.9375L168.289063 140.9375C168.0625 140.398438 167.6875 140.007813 167.050781 140.007813 166.289063 140.007813 165.777344 140.421875 165.175781 140.945313L165.128906 140.945313 165.128906 140.042969 164.863281 140.042969 163.46875 140.367188 163.46875 140.691406C163.46875 140.691406 163.601563 140.667969 163.769531 140.667969 164.082031 140.667969 164.238281 140.769531 164.238281 141.171875L164.238281 144.292969C164.238281 144.960938 164.160156 145.097656 163.457031 145.097656L163.457031 145.421875 166 145.421875 166 145.097656C165.308594 145.097656 165.164063 144.960938 165.164063 144.335938L165.164063 141.4375M176.136719 144.726563C176.203125 145.21875 176.3125 145.476563 176.804688 145.476563 177.375 145.476563 177.640625 145.242188 178.011719 144.707031L177.84375 144.527344C177.6875 144.695313 177.53125 144.804688 177.320313 144.804688 177.085938 144.804688 176.984375 144.71875 176.984375 144.257813L176.984375 141.726563C176.984375 140.566406 176.527344 140.007813 175.3125 140.007813 174.09375 140.007813 173.347656 140.613281 173.347656 141.234375 173.347656 141.605469 173.59375 141.773438 173.816406 141.773438 174.128906 141.773438 174.304688 141.605469 174.304688 141.257813 174.304688 140.589844 174.417969 140.355469 175.054688 140.355469 175.722656 140.355469 176.058594 140.722656 176.058594 141.695313L176.058594 142.183594C175.097656 142.484375 173.121094 142.777344 173.121094 144.25 173.121094 144.960938 173.59375 145.5 174.453125 145.5 175.164063 145.5 175.566406 145.1875 176.09375 144.726563zM176.058594 144.394531C175.679688 144.707031 175.277344 144.882813 174.910156 144.882813 174.429688 144.882813 174.105469 144.539063 174.105469 143.980469 174.105469 143.109375 175.042969 142.808594 176.058594 142.554688L176.058594 144.394531M181.269531 144.414063C180.992188 144.726563 180.84375 144.875 180.488281 144.875 180.054688 144.875 179.953125 144.605469 179.953125 143.8125L179.953125 140.613281 181.214844 140.613281 181.214844 140.144531 179.953125 140.144531 179.964844 138.617188 179.671875 138.617188C179.273438 139.5625 178.9375 140.03125 178.414063 140.355469L178.414063 140.613281 179.027344 140.613281 179.027344 144.125C179.027344 145.128906 179.351563 145.53125 180.097656 145.53125 180.8125 145.53125 181.046875 145.195313 181.480469 144.59375L181.269531 144.414063M183.21875 137.6875C182.828125 137.6875 182.582031 137.980469 182.582031 138.3125 182.582031 138.660156 182.839844 138.949219 183.21875 138.949219 183.609375 138.949219 183.851563 138.660156 183.851563 138.3125 183.851563 137.980469 183.609375 137.6875 183.21875 137.6875zM184.46875 145.109375C183.71875 145.109375 183.664063 144.941406 183.664063 144.292969L183.664063 140.042969 183.371094 140.042969 181.96875 140.355469 181.96875 140.679688C181.96875 140.679688 182.089844 140.65625 182.246094 140.65625 182.570313 140.65625 182.738281 140.703125 182.738281 141.179688L182.738281 144.292969C182.738281 144.929688 182.703125 145.109375 181.957031 145.109375L181.957031 145.421875 184.46875 145.421875 184.46875 145.109375M189.351563 143.769531C188.851563 144.414063 188.46875 144.695313 187.746094 144.695313 186.597656 144.695313 186.050781 143.734375 186.050781 142.375 186.050781 141.09375 186.597656 140.421875 187.5 140.421875 188.460938 140.421875 188.089844 141.695313 188.917969 141.695313 189.230469 141.695313 189.386719 141.515625 189.386719 141.191406 189.386719 140.546875 188.738281 140.007813 187.6875 140.007813 186.082031 140.007813 185.167969 141.148438 185.167969 142.898438 185.167969 144.449219 186.003906 145.53125 187.398438 145.53125 188.59375 145.53125 189.140625 144.828125 189.5625 143.925781L189.351563 143.769531M190.234375 143.589844L190.269531 145.507813 190.503906 145.507813 190.738281 145.253906 190.757813 145.253906C191.050781 145.375 191.382813 145.542969 192.03125 145.542969 193.035156 145.542969 193.90625 145.140625 193.90625 144.09375 193.90625 143.265625 193.359375 142.855469 192.34375 142.320313 191.40625 141.839844 191.039063 141.5625 191.039063 141.125 191.039063 140.625 191.429688 140.390625 191.941406 140.390625 192.621094 140.390625 193.035156 140.710938 193.28125 141.773438L193.582031 141.773438 193.546875 140.066406 193.324219 140.066406 193.136719 140.300781 193.125 140.300781C192.84375 140.164063 192.511719 140.007813 191.953125 140.007813 190.992188 140.007813 190.246094 140.5 190.246094 141.414063 190.246094 142.242188 190.703125 142.632813 191.71875 143.144531 192.757813 143.65625 192.96875 143.871094 192.96875 144.394531 192.96875 144.917969 192.566406 145.128906 192.007813 145.128906 191.183594 145.128906 190.757813 144.738281 190.523438 143.589844L190.234375 143.589844M78.507813 150.410156L78.429688 148.179688 78.140625 148.179688C78.085938 148.414063 77.972656 148.503906 77.796875 148.503906 77.527344 148.503906 77.28125 148.15625 76.265625 148.15625 75.105469 148.167969 74.148438 148.792969 74.148438 149.964844 74.148438 151.136719 75.050781 151.671875 75.941406 152.183594 76.859375 152.707031 77.796875 153.097656 77.796875 154.082031 77.796875 154.929688 77.269531 155.265625 76.433594 155.265625 75.296875 155.273438 74.726563 154.917969 74.335938 153.378906L73.992188 153.378906 74.089844 155.789063 74.4375 155.789063C74.449219 155.5625 74.582031 155.417969 74.738281 155.417969 74.996094 155.417969 75.429688 155.753906 76.589844 155.753906 77.882813 155.753906 78.855469 155.050781 78.855469 153.757813 78.855469 152.429688 77.75 151.929688 76.757813 151.371094 75.921875 150.890625 75.117188 150.488281 75.117188 149.652344 75.117188 148.960938 75.554688 148.601563 76.3125 148.601563 77.4375 148.59375 77.859375 149.183594 78.171875 150.410156L78.507813 150.410156M83.75 153.96875C83.25 154.617188 82.871094 154.894531 82.144531 154.894531 80.996094 154.894531 80.449219 153.9375 80.449219 152.574219 80.449219 151.292969 80.996094 150.621094 81.898438 150.621094 82.859375 150.621094 82.492188 151.894531 83.316406 151.894531 83.628906 151.894531 83.785156 151.714844 83.785156 151.390625 83.785156 150.746094 83.136719 150.210938 82.089844 150.210938 80.484375 150.210938 79.570313 151.347656 79.570313 153.097656 79.570313 154.648438 80.40625 155.730469 81.800781 155.730469 82.992188 155.730469 83.539063 155.03125 83.964844 154.125L83.75 153.96875M85.816406 147.890625C85.425781 147.890625 85.179688 148.179688 85.179688 148.515625 85.179688 148.859375 85.4375 149.148438 85.816406 149.148438 86.207031 149.148438 86.453125 148.859375 86.453125 148.515625 86.453125 148.179688 86.207031 147.890625 85.816406 147.890625zM87.066406 155.308594C86.320313 155.308594 86.265625 155.140625 86.265625 154.492188L86.265625 150.242188 85.972656 150.242188 84.570313 150.554688 84.570313 150.878906C84.570313 150.878906 84.691406 150.855469 84.847656 150.855469 85.171875 150.855469 85.335938 150.902344 85.335938 151.382813L85.335938 154.492188C85.335938 155.128906 85.304688 155.308594 84.554688 155.308594L84.554688 155.621094 87.066406 155.621094 87.066406 155.308594M92.03125 154.023438C91.671875 154.492188 91.328125 154.894531 90.421875 154.894531 89.53125 154.894531 88.683594 154.191406 88.683594 152.652344L92.207031 152.652344C92.152344 151.089844 91.351563 150.210938 90.132813 150.210938 88.828125 150.210938 87.78125 151.101563 87.78125 152.964844 87.78125 154.761719 88.816406 155.730469 90.15625 155.730469 91.304688 155.730469 91.839844 155.03125 92.242188 154.179688zM88.671875 152.242188C88.761719 151.203125 89.207031 150.65625 89.964844 150.65625 90.757813 150.65625 91.125 151.414063 91.160156 152.242188L88.671875 152.242188M97.964844 152.195313C97.964844 150.914063 97.484375 150.210938 96.472656 150.210938 95.769531 150.210938 95.277344 150.609375 94.675781 151.148438L94.628906 151.148438 94.640625 150.242188 94.382813 150.242188 92.96875 150.566406 92.96875 150.890625C92.96875 150.890625 93.078125 150.867188 93.269531 150.867188 93.570313 150.867188 93.738281 150.957031 93.738281 151.359375L93.738281 154.492188C93.738281 155.117188 93.703125 155.308594 92.957031 155.308594L92.957031 155.621094 95.511719 155.621094 95.511719 155.308594C94.707031 155.308594 94.664063 155.117188 94.664063 154.492188L94.664063 151.625C95 151.324219 95.410156 150.921875 96.015625 150.921875 96.515625 150.921875 97.039063 151.136719 97.039063 152.476563L97.039063 154.492188C97.039063 155.117188 97.007813 155.308594 96.214844 155.308594L96.214844 155.621094 98.792969 155.621094 98.792969 155.308594C98.042969 155.308594 97.964844 155.117188 97.964844 154.492188L97.964844 152.195313M103.652344 153.96875C103.148438 154.617188 102.769531 154.894531 102.046875 154.894531 100.898438 154.894531 100.351563 153.9375 100.351563 152.574219 100.351563 151.292969 100.898438 150.621094 101.800781 150.621094 102.757813 150.621094 102.390625 151.894531 103.21875 151.894531 103.53125 151.894531 103.6875 151.714844 103.6875 151.390625 103.6875 150.746094 103.039063 150.210938 101.988281 150.210938 100.382813 150.210938 99.46875 151.347656 99.46875 153.097656 99.46875 154.648438 100.304688 155.730469 101.699219 155.730469 102.894531 155.730469 103.4375 155.03125 103.863281 154.125L103.652344 153.96875M108.730469 154.023438C108.371094 154.492188 108.027344 154.894531 107.121094 154.894531 106.230469 154.894531 105.382813 154.191406 105.382813 152.652344L108.90625 152.652344C108.851563 151.089844 108.050781 150.210938 106.832031 150.210938 105.527344 150.210938 104.480469 151.101563 104.480469 152.964844 104.480469 154.761719 105.515625 155.730469 106.855469 155.730469 108.003906 155.730469 108.539063 155.03125 108.941406 154.179688zM105.371094 152.242188C105.460938 151.203125 105.90625 150.65625 106.664063 150.65625 107.457031 150.65625 107.828125 151.414063 107.859375 152.242188L105.371094 152.242188M46.710938 97.910156L46.632813 95.679688 46.339844 95.679688C46.285156 95.914063 46.171875 96.003906 45.996094 96.003906 45.726563 96.003906 45.480469 95.65625 44.464844 95.65625 43.304688 95.667969 42.347656 96.292969 42.347656 97.464844 42.347656 98.636719 43.25 99.171875 44.140625 99.683594 45.058594 100.207031 45.996094 100.597656 45.996094 101.582031 45.996094 102.429688 45.46875 102.765625 44.632813 102.765625 43.496094 102.773438 42.925781 102.417969 42.535156 100.878906L42.191406 100.878906 42.289063 103.285156 42.636719 103.285156C42.648438 103.0625 42.78125 102.917969 42.9375 102.917969 43.195313 102.917969 43.628906 103.253906 44.789063 103.253906 46.085938 103.253906 47.054688 102.550781 47.054688 101.257813 47.054688 99.929688 45.949219 99.429688 44.957031 98.871094 44.121094 98.390625 43.316406 97.988281 43.316406 97.152344 43.316406 96.460938 43.753906 96.101563 44.511719 96.101563 45.636719 96.09375 46.0625 96.683594 46.375 97.910156L46.710938 97.910156M49.363281 97.742188L49.085938 97.742188 47.679688 98.054688 47.679688 98.378906C47.679688 98.378906 47.890625 98.355469 48.035156 98.355469 48.40625 98.355469 48.460938 98.5 48.460938 98.925781L48.460938 104.449219C48.460938 105.074219 48.347656 105.261719 47.644531 105.261719L47.644531 105.574219 50.46875 105.574219 50.46875 105.25C49.597656 105.25 49.386719 105.105469 49.386719 104.382813L49.386719 102.917969 49.429688 102.917969C49.753906 103.140625 50.132813 103.230469 50.558594 103.230469 51.894531 103.230469 53 102.105469 53 100.207031 53 98.746094 52.230469 97.710938 51.125 97.710938 50.46875 97.710938 49.933594 98.054688 49.398438 98.679688L49.363281 98.679688zM49.386719 99.148438C49.597656 98.871094 50.078125 98.46875 50.667969 98.46875 51.492188 98.46875 51.984375 99.113281 51.984375 100.519531 51.984375 102.070313 51.394531 102.796875 50.613281 102.796875 49.988281 102.796875 49.597656 102.296875 49.386719 102.0625L49.386719 99.148438M56.9375 102.429688C57.003906 102.917969 57.113281 103.175781 57.605469 103.175781 58.175781 103.175781 58.441406 102.941406 58.8125 102.40625L58.644531 102.226563C58.488281 102.394531 58.332031 102.507813 58.117188 102.507813 57.882813 102.507813 57.785156 102.417969 57.785156 101.960938L57.785156 99.429688C57.785156 98.265625 57.328125 97.710938 56.109375 97.710938 54.894531 97.710938 54.148438 98.3125 54.148438 98.9375 54.148438 99.304688 54.390625 99.472656 54.617188 99.472656 54.929688 99.472656 55.105469 99.304688 55.105469 98.960938 55.105469 98.289063 55.21875 98.054688 55.855469 98.054688 56.523438 98.054688 56.859375 98.421875 56.859375 99.394531L56.859375 99.882813C55.898438 100.1875 53.921875 100.476563 53.921875 101.949219 53.921875 102.660156 54.390625 103.199219 55.25 103.199219 55.964844 103.199219 56.367188 102.886719 56.890625 102.429688zM56.859375 102.09375C56.476563 102.40625 56.078125 102.585938 55.710938 102.585938 55.230469 102.585938 54.90625 102.238281 54.90625 101.679688 54.90625 100.8125 55.84375 100.507813 56.859375 100.253906L56.859375 102.09375M64.164063 99.695313C64.164063 98.410156 63.6875 97.710938 62.671875 97.710938 61.96875 97.710938 61.476563 98.109375 60.875 98.648438L60.828125 98.648438 60.84375 97.742188 60.585938 97.742188 59.167969 98.066406 59.167969 98.390625C59.167969 98.390625 59.28125 98.367188 59.46875 98.367188 59.769531 98.367188 59.9375 98.457031 59.9375 98.859375L59.9375 101.992188C59.9375 102.617188 59.90625 102.808594 59.15625 102.808594L59.15625 103.121094 61.710938 103.121094 61.710938 102.808594C60.90625 102.808594 60.863281 102.617188 60.863281 101.992188L60.863281 99.125C61.199219 98.824219 61.609375 98.421875 62.214844 98.421875 62.714844 98.421875 63.242188 98.636719 63.242188 99.976563L63.242188 101.992188C63.242188 102.617188 63.207031 102.808594 62.414063 102.808594L62.414063 103.121094 64.992188 103.121094 64.992188 102.808594C64.242188 102.808594 64.164063 102.617188 64.164063 101.992188L64.164063 99.695313M66.917969 95.390625C66.527344 95.390625 66.28125 95.679688 66.28125 96.015625 66.28125 96.359375 66.539063 96.648438 66.917969 96.648438 67.308594 96.648438 67.554688 96.359375 67.554688 96.015625 67.554688 95.679688 67.308594 95.390625 66.917969 95.390625zM68.167969 102.808594C67.421875 102.808594 67.363281 102.640625 67.363281 101.992188L67.363281 97.742188 67.074219 97.742188 65.667969 98.054688 65.667969 98.378906C65.667969 98.378906 65.789063 98.355469 65.945313 98.355469 66.269531 98.355469 66.4375 98.402344 66.4375 98.882813L66.4375 101.992188C66.4375 102.628906 66.40625 102.808594 65.65625 102.808594L65.65625 103.121094 68.167969 103.121094 68.167969 102.808594M68.933594 101.289063L68.96875 103.210938 69.203125 103.210938 69.4375 102.953125 69.460938 102.953125C69.75 103.074219 70.085938 103.242188 70.730469 103.242188 71.734375 103.242188 72.605469 102.839844 72.605469 101.792969 72.605469 100.96875 72.058594 100.554688 71.042969 100.019531 70.105469 99.539063 69.738281 99.261719 69.738281 98.824219 69.738281 98.324219 70.128906 98.089844 70.640625 98.089844 71.320313 98.089844 71.734375 98.410156 71.980469 99.472656L72.28125 99.472656 72.25 97.765625 72.023438 97.765625 71.835938 98 71.824219 98C71.546875 97.863281 71.210938 97.710938 70.652344 97.710938 69.695313 97.710938 68.945313 98.199219 68.945313 99.113281 68.945313 99.941406 69.402344 100.332031 70.417969 100.84375 71.457031 101.355469 71.667969 101.570313 71.667969 102.09375 71.667969 102.617188 71.265625 102.828125 70.710938 102.828125 69.882813 102.828125 69.460938 102.4375 69.226563 101.289063L68.933594 101.289063M74.941406 99.113281C75.488281 98.613281 75.890625 98.421875 76.324219 98.421875 77.226563 98.421875 77.351563 99.191406 77.351563 100.105469L77.351563 102.035156C77.351563 102.574219 77.304688 102.796875 76.539063 102.796875L76.539063 103.121094 79.101563 103.121094 79.101563 102.796875C78.398438 102.796875 78.277344 102.585938 78.277344 101.992188L78.277344 99.773438C78.277344 98.859375 78.066406 97.710938 76.78125 97.710938 76.191406 97.710938 75.679688 97.964844 74.976563 98.625L74.941406 98.625 74.941406 95.242188 74.640625 95.242188 73.144531 95.632813 73.144531 95.945313C73.144531 95.945313 73.289063 95.925781 73.46875 95.925781 73.769531 95.925781 74.015625 95.980469 74.015625 96.371094L74.015625 102.082031C74.015625 102.707031 73.8125 102.796875 73.234375 102.796875L73.234375 103.121094 75.765625 103.121094 75.765625 102.796875C74.996094 102.796875 74.941406 102.617188 74.941406 102.035156L74.941406 99.113281" />
</svg>